<svg
    width="25"
    height="26"
    viewBox="0 0 25 26"
    fill="none"
    xmlns="http://www.w3.org/2000/svg"
>
    <path
        fill-rule="evenodd"
        clip-rule="evenodd"
        d="M20.7318 4.8199C22.9777 7.00535 23.0268 10.5977 20.8413 12.8436C19.3766 14.3488 17.28 14.8673 15.3802 14.3876L8.91522 21.0315C7.82249 22.1545 6.02632 22.179 4.90336 21.0862C3.7804 19.9935 3.75589 18.1973 4.84862 17.0744L11.3137 10.4305C10.7824 8.54455 11.2434 6.43458 12.7081 4.92938C14.8936 2.68346 18.4859 2.63444 20.7318 4.8199ZM22.0291 6.74106C21.7428 6.03873 21.3101 5.38268 20.7318 4.81992C20.1534 4.25711 19.4857 3.84249 18.7758 3.57542L15.148 7.30353L18.4013 10.4692L22.0291 6.74106Z"
        fill="currentColor"
    />
</svg>