<svg
    width="24"
    height="24"
    viewBox="0 0 24 24"
    fill="none"
    xmlns="http://www.w3.org/2000/svg"
>
    <path
        fill-rule="evenodd"
        clip-rule="evenodd"
        d="M15.177 4.21671C15.3999 4.32059 15.6201 4.43508 15.837 4.56034C16.0728 4.69649 16.2996 4.84234 16.517 4.9971L18.7299 3.7195C19.5276 3.25889 20.5478 3.53224 21.0084 4.33003L22.937 7.6705C23.3976 8.4683 23.1243 9.48843 22.3265 9.94903L20.021 11.2801C20.0529 11.7529 20.045 12.2299 19.9958 12.706L22.3264 14.0515C23.1242 14.5121 23.3976 15.5323 22.937 16.3301L21.0083 19.6705C20.5477 20.4683 19.5276 20.7417 18.7298 20.2811L16.261 18.8557C15.9138 19.0841 15.5513 19.2856 15.177 19.4592V22.3321C15.177 23.2534 14.4302 24.0001 13.509 24.0001H9.65174C8.73053 24.0001 7.98375 23.2534 7.98375 22.3321L7.98374 19.4067C7.79836 19.317 7.61489 19.2199 7.4337 19.1153C7.27143 19.0216 7.11347 18.9234 6.95989 18.8207L4.43095 20.2808C3.63315 20.7414 2.61302 20.4681 2.15242 19.6703L0.223793 16.3298C-0.236812 15.532 0.0365321 14.5119 0.834324 14.0513L3.27023 12.6449C3.2282 12.2131 3.21941 11.7769 3.24493 11.3405L0.834277 9.9487C0.0364858 9.4881 -0.236857 8.46796 0.223748 7.67017L2.15237 4.3297C2.61298 3.5319 3.63311 3.25856 4.4309 3.71917L6.7036 5.03131C7.10883 4.73805 7.53753 4.48323 7.98375 4.26847L7.98374 1.668C7.98374 0.746788 8.73053 0 9.65174 0H13.509C14.4302 0 15.177 0.746789 15.177 1.668V4.21671ZM8.1383 9.8188C7.02323 11.7502 7.68496 14.2198 9.61634 15.3349C11.5477 16.45 14.0173 15.7882 15.1324 13.8569C16.2475 11.9255 15.5858 9.45585 13.6544 8.34077C11.723 7.22569 9.25338 7.88743 8.1383 9.8188Z"
        fill="currentColor"
    />
</svg>