<svg width="124" height="51" viewBox="0 0 124 51" fill="none" xmlns="http://www.w3.org/2000/svg">
<path d="M4.13805 26.563L3.93679 25.8586C1.61392 17.7285 6.37462 9.26608 14.529 7.03019L17.4282 6.23524C23.0194 4.70219 29.0064 5.92938 33.5435 9.53846L40.2248 14.8531C45.276 18.8711 51.7421 20.6661 58.1417 19.8268L73.5302 17.8086C78.6915 17.1317 82.2297 12.2651 81.2819 7.14661C80.9307 5.2501 82.3864 3.5 84.3152 3.5H111.225C115.434 3.5 119.157 6.23205 120.419 10.2479C121.658 14.1912 120.245 18.4858 116.906 20.9224L110.059 25.9185C106.636 28.4167 104.375 32.1992 103.796 36.3974C103.221 40.5651 100.003 43.8747 95.8534 44.5664L76.1311 47.8534C74.5548 48.1161 72.9523 47.567 71.8684 46.3928C69.1678 43.4672 65.0704 42.2755 61.222 43.2965L48.3404 46.7141C44.2341 47.8035 39.905 47.7229 35.842 46.4815L29.9833 44.6913C25.9201 43.4498 21.521 43.9889 17.8777 46.1748C11.5374 49.979 3.56779 44.9443 4.28001 37.5847L4.7243 32.9937C4.93347 30.8323 4.7346 28.6509 4.13805 26.563Z" stroke="currentColor" stroke-width="6"/>
</svg>
