<svg width="127" height="55" viewBox="0 0 127 55" fill="none" xmlns="http://www.w3.org/2000/svg">
<path d="M108.089 51.4147L65.8735 47.8988C62.5863 47.6251 59.2808 47.6556 55.9992 47.9901L25.5475 51.094C16.7015 51.9956 8.76042 45.6532 7.68403 36.8268C7.52562 35.5278 7.25331 34.2453 6.87027 32.994L4.46987 25.1527C2.1898 17.7045 5.37353 9.67038 12.1366 5.80576C17.7486 2.59889 24.7089 2.92647 29.9949 6.64627L33.4709 9.09231C42.5534 15.4837 54.4655 16.2015 64.2498 10.947L64.8227 10.6393C71.6027 6.99826 79.7029 6.76838 86.6784 10.0191L115.514 23.4572C120.691 25.8695 124 31.0629 124 36.7737C124 45.3686 116.654 52.128 108.089 51.4147Z" stroke="currentColor" stroke-width="6"/>
</svg>
