<svg width="128" height="48" viewBox="0 0 128 48" fill="none" xmlns="http://www.w3.org/2000/svg">
<path d="M46.1908 45H30.5C15.3122 45 3 32.6878 3 17.5C3 9.54835 11.3231 4.33994 18.4745 7.81634L29.0497 12.9571C33.2521 14.9999 37.9573 15.7784 42.5937 15.198L55.6337 13.5657C61.7132 12.8047 67.632 11.0763 73.1658 8.44621L78.151 6.07684C83.0088 3.76798 88.3869 2.77249 93.7493 3.18956L114.114 4.77346C120.853 5.2976 125.741 11.4152 124.766 18.1037L123.966 23.5886C123.853 24.3605 123.334 25.0122 122.607 25.2949C117.642 27.2258 115.826 33.3172 118.922 37.6523L120.038 39.2148C121.768 41.6364 120.037 45 117.061 45H110.436C108.66 45 106.948 44.3308 105.642 43.1256L101.918 39.6881C97.1559 35.2919 90.0648 34.5625 84.507 37.8972L82.3531 39.1896C80.3176 40.4109 77.7177 40.1264 75.9945 38.4939C72.0891 34.794 66.1155 34.364 61.7204 37.4664L55.0159 42.199C52.434 44.0215 49.3512 45 46.1908 45Z" stroke="currentColor" stroke-width="6"/>
</svg>
