<svg
  width="118"
  height="50"
  viewBox="0 0 118 50"
  fill="none"
  xmlns="http://www.w3.org/2000/svg"
>
  <path
    d="M47.4952 19.6392C52.0248 24.9589 59.8578 25.9598 65.5796 21.9501L90.5003 4.48596C93.1398 2.6362 96.3175 5.94499 94.3627 8.5076C90.884 13.0681 92.6142 19.6834 97.8804 21.9567L110.025 27.1993C110.619 27.4558 111.174 27.7947 111.674 28.206L113.581 25.8902L111.674 28.206C116.885 32.4973 113.452 40.9452 106.724 40.3849L75.0585 37.7477C72.8825 37.5664 70.6918 37.6985 68.5534 38.1398L29.1264 46.2756C13.8611 49.4257 0.566311 35.5082 4.41129 20.4029L4.78216 18.9459C8.8509 2.96156 29.261 -1.77538 39.9541 10.7829L47.4952 19.6392Z"
    stroke="currentColor"
    strokeWidth="6"
  />
</svg>
