<svg width="130" height="44" viewBox="0 0 130 44" fill="none" xmlns="http://www.w3.org/2000/svg">
<path d="M14.1224 3.45065L58.3554 7.94588C62.0793 8.32433 65.8317 8.33027 69.5568 7.96363L106.803 4.29769C117.622 3.23279 127 11.7329 127 22.6046C127 32.7641 118.764 41 108.605 41H90.2941C89.0271 41 88 39.9729 88 38.7059C88 30.6097 77.5888 27.3104 72.9257 33.929L70.3675 37.56C69.3131 39.0565 67.3233 39.5576 65.686 38.7389L45.1368 28.4643C39.0747 25.4333 31.9525 25.3726 25.8397 28.2998C15.2522 33.3699 3 25.6526 3 13.9137V13.5C3 7.51748 8.17051 2.84579 14.1224 3.45065Z" stroke="currentColor" stroke-width="6"/>
</svg>
